<?xml version="1.0" standalone="no"?>
<!DOCTYPE svg PUBLIC "-//W3C//DTD SVG 20010904//EN"
 "http://www.w3.org/TR/2001/REC-SVG-20010904/DTD/svg10.dtd">
<svg version="1.0" xmlns="http://www.w3.org/2000/svg"
 width="600.000000pt" height="600.000000pt" viewBox="0 0 600.000000 600.000000"
 preserveAspectRatio="xMidYMid meet">
<metadata>
Created by potrace 1.11, written by Peter Selinger 2001-2013
</metadata>
<g transform="translate(0.000000,600.000000) scale(0.100000,-0.100000)"
fill="#000000" stroke="none">
<path d="M3896 4249 c-61 -9 -177 -39 -231 -59 -16 -6 -32 -12 -35 -12 -3 -1
-27 -14 -53 -30 -26 -15 -50 -28 -53 -28 -15 0 -130 -90 -197 -155 -91 -87
-213 -254 -207 -281 1 -4 -2 -10 -8 -13 -11 -7 -57 -123 -66 -166 -4 -16 -9
-41 -12 -55 -3 -14 -7 -41 -10 -60 -3 -19 -7 -46 -9 -60 -5 -31 -5 -1033 -1
-1075 8 -65 64 -194 114 -257 36 -47 119 -122 167 -152 114 -71 176 -88 331
-88 233 -1 448 154 534 384 24 65 24 65 71 73 89 15 201 54 294 102 59 31 139
84 143 95 2 4 8 8 14 8 17 0 163 153 210 220 74 107 136 240 153 328 2 9 4 19
5 22 3 7 5 17 15 85 11 79 13 207 3 275 -5 30 -11 71 -13 90 -9 58 -45 160
-87 243 -135 271 -404 486 -683 548 -27 6 -59 13 -70 15 -39 9 -261 11 -319 3z
m206 -820 c11 -6 32 -12 46 -14 55 -6 90 -93 93 -230 2 -70 -6 -95 -30 -95
-10 0 -28 -11 -41 -25 -13 -14 -25 -23 -28 -20 -2 2 -17 -2 -32 -10 -17 -9
-73 -17 -137 -20 -115 -6 -145 2 -143 42 0 10 2 68 4 128 4 132 11 162 39 171
12 4 39 22 60 39 25 22 47 32 63 30 13 -1 27 2 30 6 7 12 51 11 76 -2z"/>
<path d="M1867 3824 c-1 -1 -36 -5 -77 -9 -99 -9 -104 -10 -115 -17 -6 -3 -27
-8 -47 -12 -47 -8 -188 -64 -209 -82 -8 -8 -21 -14 -27 -14 -7 0 -21 -9 -32
-20 -11 -11 -20 -17 -20 -14 0 6 -70 -47 -101 -76 -8 -8 -26 -24 -40 -36 -58
-49 -213 -244 -194 -244 4 0 -1 -7 -9 -16 -9 -8 -16 -22 -16 -30 0 -8 -4 -14
-9 -14 -7 0 -17 -23 -26 -60 0 -3 -6 -14 -12 -25 -6 -11 -11 -22 -11 -25 0 -3
-5 -25 -12 -50 -7 -25 -12 -47 -13 -50 0 -3 -4 -21 -9 -40 -6 -19 -11 -100
-13 -180 -2 -111 1 -166 16 -234 10 -49 21 -96 25 -105 4 -9 8 -18 9 -21 49
-141 141 -283 262 -401 167 -162 344 -251 573 -287 42 -7 620 -9 670 -3 19 3
40 7 45 10 6 3 19 7 30 8 11 2 54 20 95 40 129 65 263 216 300 338 6 22 16 50
22 63 8 15 12 115 12 290 0 333 -4 446 -17 491 -6 20 -11 38 -12 41 -1 3 -5
21 -9 40 -5 19 -13 41 -18 48 -6 6 -7 12 -4 12 4 0 1 12 -7 28 -8 15 -25 50
-38 77 -13 28 -27 52 -31 53 -5 2 -8 9 -8 14 0 15 -97 142 -146 193 -100 102
-270 222 -299 211 -8 -3 -14 -1 -12 5 2 11 -126 63 -184 74 -102 20 -271 37
-282 29z m139 -854 c22 -13 40 -27 42 -32 2 -4 17 -24 34 -45 l30 -38 -6 -119
c-7 -144 -10 -149 -99 -153 -34 -1 -79 -4 -101 -7 -41 -5 -81 6 -109 32 -10 9
-25 17 -33 18 -25 4 -54 35 -54 59 0 11 -5 26 -10 31 -13 13 -13 101 -1 175 2
14 39 49 62 59 13 5 31 14 39 18 8 5 24 14 35 19 34 19 128 9 171 -17z"/>
</g>
</svg>
